<svg xmlns="http://www.w3.org/2000/svg" viewBox="0 0 500 840">
  <defs>
    <radialGradient id="gold-glow" cx="50%" cy="50%" r="50%">
      <stop offset="0%" stop-color="#fbbf24" stop-opacity="0.35"/>
      <stop offset="100%" stop-color="#fbbf24" stop-opacity="0"/>
    </radialGradient>
    <linearGradient id="intent-grad" x1="0%" y1="0%" x2="100%" y2="100%">
      <stop offset="0%" stop-color="#1e1b4b"/>
      <stop offset="100%" stop-color="#0f172a"/>
    </linearGradient>
    <marker id="arr-red" markerWidth="7" markerHeight="7" refX="5" refY="3.5" orient="auto">
      <polygon points="0,0 7,3.5 0,7" fill="#ef4444"/>
    </marker>
    <marker id="arr-gold" markerWidth="7" markerHeight="7" refX="5" refY="3.5" orient="auto">
      <polygon points="0,0 7,3.5 0,7" fill="#fbbf24"/>
    </marker>
    <marker id="arr-indigo" markerWidth="7" markerHeight="7" refX="5" refY="3.5" orient="auto">
      <polygon points="0,0 7,3.5 0,7" fill="#6366f1"/>
    </marker>
  </defs>

  <!-- Background -->
  <rect width="500" height="840" fill="#080808"/>

  <!-- ══ 战略拆解层 (y=0~218) ══ -->
  <text x="250" y="18" text-anchor="middle" fill="#444" font-size="9" font-family="monospace" letter-spacing="2">战略拆解层</text>

  <!-- 战略意图 box -->
  <rect x="138" y="26" width="224" height="50" rx="6" fill="url(#intent-grad)" stroke="#6366f1" stroke-width="1.5"/>
  <text x="250" y="47" text-anchor="middle" fill="#818cf8" font-size="12" font-family="monospace" font-weight="bold">战略意图</text>
  <text x="250" y="64" text-anchor="middle" fill="#4b5563" font-size="8" font-family="monospace">自然语言业务目标</text>

  <!-- LLM 拆解 arrow -->
  <line x1="250" y1="76" x2="250" y2="93" stroke="#6366f1" stroke-width="1.2" marker-end="url(#arr-indigo)"/>
  <text x="262" y="89" fill="#6366f1" font-size="8" font-family="monospace">LLM 语义拆解</text>

  <!-- Fan-out lines to target nodes -->
  <line x1="250" y1="95" x2="75" y2="133" stroke="#4338ca" stroke-width="0.8" stroke-dasharray="4,3" opacity="0.5"/>
  <line x1="250" y1="95" x2="153" y2="125" stroke="#4338ca" stroke-width="0.8" stroke-dasharray="4,3" opacity="0.65"/>
  <line x1="250" y1="95" x2="250" y2="112" stroke="#fbbf24" stroke-width="1.2" stroke-dasharray="4,2" opacity="0.85"/>
  <line x1="250" y1="95" x2="347" y2="125" stroke="#4338ca" stroke-width="0.8" stroke-dasharray="4,3" opacity="0.65"/>
  <line x1="250" y1="95" x2="425" y2="133" stroke="#4338ca" stroke-width="0.8" stroke-dasharray="4,3" opacity="0.5"/>

  <!-- Target 01 -->
  <circle cx="75" cy="148" r="17" fill="#0d0d1a" stroke="#4338ca" stroke-width="1"/>
  <text x="75" y="145" text-anchor="middle" fill="#6366f1" font-size="7" font-family="monospace">目标</text>
  <text x="75" y="155" text-anchor="middle" fill="#6366f1" font-size="7" font-family="monospace">01</text>

  <!-- Target 02 -->
  <circle cx="153" cy="138" r="17" fill="#0d0d1a" stroke="#4338ca" stroke-width="1"/>
  <text x="153" y="135" text-anchor="middle" fill="#6366f1" font-size="7" font-family="monospace">目标</text>
  <text x="153" y="145" text-anchor="middle" fill="#6366f1" font-size="7" font-family="monospace">02</text>

  <!-- Target 03 — ACTIVE (current 靶心) -->
  <circle cx="250" cy="130" r="24" fill="url(#gold-glow)"/>
  <circle cx="250" cy="130" r="17" fill="#1a1208" stroke="#fbbf24" stroke-width="2"/>
  <circle cx="250" cy="130" r="9" fill="none" stroke="#fbbf24" stroke-width="1.2" opacity="0.7"/>
  <text x="250" y="127" text-anchor="middle" fill="#fbbf24" font-size="7" font-family="monospace" font-weight="bold">当前</text>
  <text x="250" y="137" text-anchor="middle" fill="#fbbf24" font-size="7" font-family="monospace">目标</text>

  <!-- Target 04 -->
  <circle cx="347" cy="138" r="17" fill="#0d0d1a" stroke="#4338ca" stroke-width="1"/>
  <text x="347" y="135" text-anchor="middle" fill="#6366f1" font-size="7" font-family="monospace">目标</text>
  <text x="347" y="145" text-anchor="middle" fill="#6366f1" font-size="7" font-family="monospace">04</text>

  <!-- Target ∞ -->
  <circle cx="425" cy="148" r="17" fill="#0d0d1a" stroke="#333" stroke-width="1" stroke-dasharray="3,2"/>
  <text x="425" y="145" text-anchor="middle" fill="#444" font-size="7" font-family="monospace">目标</text>
  <text x="425" y="155" text-anchor="middle" fill="#444" font-size="9" font-family="monospace">∞</text>

  <!-- Sublabel -->
  <text x="250" y="177" text-anchor="middle" fill="#374151" font-size="8" font-family="monospace">LLM 精准语义识别 · 模式匹配 · 无上限</text>

  <!-- Active target → 靶心 connection -->
  <path d="M250,147 L250,197" stroke="#fbbf24" stroke-width="1.5" fill="none" stroke-dasharray="5,3" marker-end="url(#arr-gold)" opacity="0.75"/>

  <!-- Divider -->
  <line x1="30" y1="205" x2="470" y2="205" stroke="#1e1e1e" stroke-width="1"/>
  <text x="250" y="217" text-anchor="middle" fill="#2a2a2a" font-size="8" font-family="monospace">↓ 当前目标进入螺旋执行</text>

  <!-- ══ EXISTING SPIRAL CONTENT shifted +220 ══ -->
  <g transform="translate(0,220)">
    <text x="250" y="27" text-anchor="middle" fill="#ffffff" font-size="13" font-family="monospace" font-weight="bold" letter-spacing="2">OPC-X · 螺旋执行协议</text>

    <circle cx="250" cy="68" r="44" fill="url(#gold-glow)"/>
    <circle cx="250" cy="68" r="22" fill="none" stroke="#fbbf24" stroke-width="2" opacity="0.85"/>
    <circle cx="250" cy="68" r="13" fill="none" stroke="#fbbf24" stroke-width="2"/>
    <circle cx="250" cy="68" r="5" fill="#fbbf24"/>
    <text x="250" y="50" text-anchor="middle" fill="#fbbf24" font-size="10" font-family="monospace">靶心 Vision</text>

    <path d="M168,179 C192,142 226,104 250,90" stroke="#fbbf24" stroke-width="1.5" fill="none" stroke-dasharray="6,3" marker-end="url(#arr-gold)" opacity="0.75"/>
    <path d="M141,302 C163,253 207,198 250,167" stroke="#ef4444" stroke-width="1.8" fill="none" stroke-dasharray="6,3" marker-end="url(#arr-red)"/>
    <text x="163" y="229" fill="#ef4444" font-size="9" font-family="monospace" transform="rotate(-50,163,229)">+1圈 ⬆</text>
    <path d="M109,450 C138,377 191,318 250,286" stroke="#ef4444" stroke-width="1.8" fill="none" stroke-dasharray="6,3" marker-end="url(#arr-red)"/>
    <text x="153" y="368" fill="#ef4444" font-size="9" font-family="monospace" transform="rotate(-50,153,368)">+1圈 ⬆</text>

    <ellipse cx="250" cy="185" rx="86" ry="20" fill="none" stroke="#555" stroke-width="1.2"/>
    <text x="46" y="188" text-anchor="middle" fill="#555" font-size="9" font-family="monospace">第N圈</text>
    <line x1="250" y1="165" x2="332" y2="179" stroke="#555" stroke-width="0.8"/>
    <line x1="332" y1="179" x2="301" y2="201" stroke="#555" stroke-width="0.8"/>
    <line x1="301" y1="201" x2="199" y2="201" stroke="#555" stroke-width="0.8"/>
    <line x1="199" y1="201" x2="168" y2="179" stroke="#555" stroke-width="0.8"/>
    <circle cx="250" cy="165" r="16" fill="#ef4444"/>
    <text x="250" y="162" text-anchor="middle" fill="white" font-size="8" font-family="monospace" font-weight="bold">决策</text>
    <text x="250" y="172" text-anchor="middle" fill="white" font-size="7" font-family="monospace">O01</text>
    <circle cx="332" cy="179" r="16" fill="#f97316"/>
    <text x="332" y="176" text-anchor="middle" fill="white" font-size="8" font-family="monospace" font-weight="bold">需求</text>
    <text x="332" y="186" text-anchor="middle" fill="white" font-size="7" font-family="monospace">O03</text>
    <circle cx="301" cy="201" r="16" fill="#22c55e"/>
    <text x="301" y="198" text-anchor="middle" fill="white" font-size="8" font-family="monospace" font-weight="bold">执行</text>
    <text x="301" y="208" text-anchor="middle" fill="white" font-size="7" font-family="monospace">04-07</text>
    <circle cx="199" cy="201" r="16" fill="#3b82f6"/>
    <text x="199" y="198" text-anchor="middle" fill="white" font-size="8" font-family="monospace" font-weight="bold">验收</text>
    <text x="199" y="208" text-anchor="middle" fill="white" font-size="7" font-family="monospace">O08</text>
    <circle cx="168" cy="179" r="16" fill="#a855f7"/>
    <text x="168" y="176" text-anchor="middle" fill="white" font-size="8" font-family="monospace" font-weight="bold">反馈</text>
    <text x="168" y="186" text-anchor="middle" fill="white" font-size="7" font-family="monospace">O10</text>

    <ellipse cx="250" cy="310" rx="115" ry="26" fill="none" stroke="#555" stroke-width="1.2"/>
    <text x="46" y="313" text-anchor="middle" fill="#555" font-size="9" font-family="monospace">第2圈</text>
    <line x1="250" y1="284" x2="359" y2="302" stroke="#555" stroke-width="0.8"/>
    <line x1="359" y1="302" x2="318" y2="331" stroke="#555" stroke-width="0.8"/>
    <line x1="318" y1="331" x2="182" y2="331" stroke="#555" stroke-width="0.8"/>
    <line x1="182" y1="331" x2="141" y2="302" stroke="#555" stroke-width="0.8"/>
    <circle cx="250" cy="284" r="18" fill="#ef4444"/>
    <text x="250" y="281" text-anchor="middle" fill="white" font-size="9" font-family="monospace" font-weight="bold">决策</text>
    <text x="250" y="291" text-anchor="middle" fill="white" font-size="8" font-family="monospace">O01</text>
    <circle cx="359" cy="302" r="18" fill="#f97316"/>
    <text x="359" y="299" text-anchor="middle" fill="white" font-size="9" font-family="monospace" font-weight="bold">需求</text>
    <text x="359" y="309" text-anchor="middle" fill="white" font-size="8" font-family="monospace">O03</text>
    <circle cx="318" cy="331" r="18" fill="#22c55e"/>
    <text x="318" y="328" text-anchor="middle" fill="white" font-size="9" font-family="monospace" font-weight="bold">执行</text>
    <text x="318" y="338" text-anchor="middle" fill="white" font-size="7" font-family="monospace">04-07</text>
    <circle cx="182" cy="331" r="18" fill="#3b82f6"/>
    <text x="182" y="328" text-anchor="middle" fill="white" font-size="9" font-family="monospace" font-weight="bold">验收</text>
    <text x="182" y="338" text-anchor="middle" fill="white" font-size="8" font-family="monospace">O08</text>
    <circle cx="141" cy="302" r="18" fill="#a855f7"/>
    <text x="141" y="299" text-anchor="middle" fill="white" font-size="9" font-family="monospace" font-weight="bold">反馈</text>
    <text x="141" y="309" text-anchor="middle" fill="white" font-size="8" font-family="monospace">O10</text>

    <ellipse cx="250" cy="460" rx="148" ry="33" fill="none" stroke="#555" stroke-width="1.2"/>
    <text x="46" y="463" text-anchor="middle" fill="#555" font-size="9" font-family="monospace">第1圈</text>
    <line x1="250" y1="427" x2="391" y2="450" stroke="#555" stroke-width="0.8"/>
    <line x1="391" y1="450" x2="337" y2="487" stroke="#555" stroke-width="0.8"/>
    <line x1="337" y1="487" x2="163" y2="487" stroke="#555" stroke-width="0.8"/>
    <line x1="163" y1="487" x2="109" y2="450" stroke="#555" stroke-width="0.8"/>
    <circle cx="250" cy="427" r="20" fill="#ef4444"/>
    <text x="250" y="424" text-anchor="middle" fill="white" font-size="9" font-family="monospace" font-weight="bold">决策</text>
    <text x="250" y="434" text-anchor="middle" fill="white" font-size="8" font-family="monospace">O01</text>
    <circle cx="391" cy="450" r="20" fill="#f97316"/>
    <text x="391" y="447" text-anchor="middle" fill="white" font-size="9" font-family="monospace" font-weight="bold">需求</text>
    <text x="391" y="457" text-anchor="middle" fill="white" font-size="8" font-family="monospace">O03</text>
    <circle cx="337" cy="487" r="20" fill="#22c55e"/>
    <text x="337" y="484" text-anchor="middle" fill="white" font-size="9" font-family="monospace" font-weight="bold">执行</text>
    <text x="337" y="494" text-anchor="middle" fill="white" font-size="7" font-family="monospace">04-07</text>
    <circle cx="163" cy="487" r="20" fill="#3b82f6"/>
    <text x="163" y="484" text-anchor="middle" fill="white" font-size="9" font-family="monospace" font-weight="bold">验收</text>
    <text x="163" y="494" text-anchor="middle" fill="white" font-size="8" font-family="monospace">O08</text>
    <circle cx="109" cy="450" r="20" fill="#a855f7"/>
    <text x="109" y="447" text-anchor="middle" fill="white" font-size="9" font-family="monospace" font-weight="bold">反馈</text>
    <text x="109" y="457" text-anchor="middle" fill="white" font-size="8" font-family="monospace">O10</text>

    <rect x="18" y="526" width="464" height="76" rx="5" fill="#111" stroke="#2a2a2a" stroke-width="1"/>
    <line x1="33" y1="543" x2="72" y2="543" stroke="#ef4444" stroke-width="1.5" stroke-dasharray="5,3"/>
    <text x="78" y="547" fill="#999" font-size="9" font-family="monospace">螺旋跃升 +1圈</text>
    <line x1="220" y1="543" x2="259" y2="543" stroke="#555" stroke-width="0.8"/>
    <text x="265" y="547" fill="#999" font-size="9" font-family="monospace">轮内执行链</text>
    <circle cx="33" cy="565" r="5" fill="#ef4444"/>
    <text x="43" y="569" fill="#ccc" font-size="9" font-family="monospace">决策 O01</text>
    <circle cx="113" cy="565" r="5" fill="#f97316"/>
    <text x="123" y="569" fill="#ccc" font-size="9" font-family="monospace">需求 O03</text>
    <circle cx="193" cy="565" r="5" fill="#22c55e"/>
    <text x="203" y="569" fill="#ccc" font-size="9" font-family="monospace">执行 O04-07</text>
    <circle cx="297" cy="565" r="5" fill="#3b82f6"/>
    <text x="307" y="569" fill="#ccc" font-size="9" font-family="monospace">验收 O08</text>
    <circle cx="377" cy="565" r="5" fill="#a855f7"/>
    <text x="387" y="569" fill="#ccc" font-size="9" font-family="monospace">反馈 O10</text>
    <text x="250" y="591" text-anchor="middle" fill="#3a3a3a" font-size="8" font-family="monospace">每圈仅做加法 · 螺旋上升 · 直至命中靶心</text>
  </g>
</svg>
